<svg width="21" height="17" viewBox="0 0 21 17" fill="none" xmlns="http://www.w3.org/2000/svg">
<path d="M10.75 2.69L15.75 7.19V15H13.75V9H7.75V15H5.75V7.19L10.75 2.69ZM10.75 0L0.75 9H3.75V17H9.75V11H11.75V17H17.75V9H20.75" fill="#913FF7"/>
<path d="M5.75 7L10.75 2.5L15.75 7V15H13.75V9H7.75V15.5H5.75V7Z" fill="#913FF7"/>
<path fill-rule="evenodd" clip-rule="evenodd" d="M10.75 1.82732L16.25 6.77732V15.5H13.25V9.5H8.25V16H5.25V6.77732L10.75 1.82732ZM6.25 7.22268V15H7.25V8.5H14.25V14.5H15.25V7.22268L10.75 3.17268L6.25 7.22268Z" fill="#913FF7"/>
</svg>
