<svg width="17" height="16" viewBox="0 0 17 16" fill="none" xmlns="http://www.w3.org/2000/svg">
<path d="M8.25 8C7.15 8 6.20833 7.60833 5.425 6.825C4.64167 6.04167 4.25 5.1 4.25 4C4.25 2.9 4.64167 1.95833 5.425 1.175C6.20833 0.391667 7.15 0 8.25 0C9.35 0 10.2917 0.391667 11.075 1.175C11.8583 1.95833 12.25 2.9 12.25 4C12.25 5.1 11.8583 6.04167 11.075 6.825C10.2917 7.60833 9.35 8 8.25 8ZM0.25 16V13.2C0.25 12.6333 0.396 12.1127 0.688 11.638C0.98 11.1633 1.36733 10.8007 1.85 10.55C2.88333 10.0333 3.93333 9.646 5 9.388C6.06667 9.13 7.15 9.00067 8.25 9C9.35 9 10.4333 9.12933 11.5 9.388C12.5667 9.64667 13.6167 10.034 14.65 10.55C15.1333 10.8 15.521 11.1627 15.813 11.638C16.105 12.1133 16.2507 12.634 16.25 13.2V16H0.25ZM2.25 14H14.25V13.2C14.25 13.0167 14.2043 12.85 14.113 12.7C14.0217 12.55 13.9007 12.4333 13.75 12.35C12.85 11.9 11.9417 11.5627 11.025 11.338C10.1083 11.1133 9.18333 11.0007 8.25 11C7.31667 11 6.39167 11.1127 5.475 11.338C4.55833 11.5633 3.65 11.9007 2.75 12.35C2.6 12.4333 2.479 12.55 2.387 12.7C2.295 12.85 2.24933 13.0167 2.25 13.2V14ZM8.25 6C8.8 6 9.271 5.80433 9.663 5.413C10.055 5.02167 10.2507 4.55067 10.25 4C10.25 3.45 10.0543 2.97933 9.663 2.588C9.27167 2.19667 8.80067 2.00067 8.25 2C7.7 2 7.22933 2.196 6.838 2.588C6.44667 2.98 6.25067 3.45067 6.25 4C6.25 4.55 6.446 5.021 6.838 5.413C7.23 5.805 7.70067 6.00067 8.25 6Z" fill="#ABABAB"/>
</svg>
