                        <svg width="21" height="20" viewBox="0 0 21 20" fill="none" xmlns="http://www.w3.org/2000/svg">
                            <path d="M3 3.3275C3 2.87083 3.37083 2.5 3.8275 2.5H17.1725C17.6292 2.5 18 2.87083 18 3.3275V16.6725C17.9998 16.8919 17.9125 17.1022 17.7574 17.2574C17.6022 17.4125 17.3919 17.4998 17.1725 17.5H3.8275C3.60803 17.5 3.39756 17.4128 3.24237 17.2576C3.08718 17.1024 3 16.892 3 16.6725V3.3275ZM9.35167 7.0125C9.30151 6.97904 9.24322 6.95981 9.183 6.95685C9.12279 6.9539 9.06289 6.96733 9.00971 6.99572C8.95652 7.02411 8.91202 7.06639 8.88097 7.11807C8.84991 7.16974 8.83344 7.22888 8.83333 7.28917V12.7108C8.83344 12.7711 8.84991 12.8303 8.88097 12.8819C8.91202 12.9336 8.95652 12.9759 9.00971 13.0043C9.06289 13.0327 9.12279 13.0461 9.183 13.0431C9.24322 13.0402 9.30151 13.021 9.35167 12.9875L13.4175 10.2775C13.463 10.2469 13.5004 10.2056 13.5262 10.1572C13.552 10.1089 13.5655 10.0548 13.5655 10C13.5655 9.94515 13.552 9.89115 13.5262 9.84275C13.5004 9.79436 13.463 9.75306 13.4175 9.7225L9.35167 7.0125Z" fill="#913FF7" />
                        </svg>